<svg width="75" height="32" viewBox="0 0 75 32" fill="none" xmlns="http://www.w3.org/2000/svg">
<path d="M70.5416 15.2327L74.4994 32C73.3328 31.7331 72.1668 31.3991 70.979 31.0992L68.7494 21.8332L66.4581 30.3334C65.3333 30.0334 64.2286 29.9325 63.1038 29.6995L67.1248 15.0327L63.4787 0H66.8542L68.8957 8.39916L71.0833 0H74.4994L70.5416 15.2327ZM60.8124 0H57.75V29.0666C58.7498 29.1666 59.7914 29.2326 60.8124 29.4326V0ZM55.1037 28.7327C52.3124 28.4328 49.5205 28.1668 46.6668 28.0659V0H49.7911V23.3329C51.5832 23.3999 53.3747 23.6328 55.1037 23.7658V28.7327ZM43.3331 11.3665V16.3664H39.0628V27.7329H35.9791V0H44.7291V4.99991H39.0628V11.3665H43.3331ZM30.729 4.99991V27.9999C29.6874 27.9999 28.6251 27.9999 27.6041 28.0659V4.99991H24.3748V0H33.9789V4.99991H30.729ZM20.9999 16.6324C19.6252 16.6324 17.9999 16.6324 16.8333 16.7333V24.1667C18.6667 23.9658 20.5 23.7328 22.354 23.6328V28.4328L13.7084 29.5335V0H22.354V4.99991H16.8333V11.7324C18.0418 11.7324 19.8958 11.6325 20.9999 11.6325V16.6324ZM3.68743 13.833V31.2992C2.56267 31.5001 1.56227 31.7331 0.5 32V0H3.47935L7.54158 18.167V0H10.6665V29.9325C9.56239 30.2334 8.43764 30.3334 7.24977 30.5993L3.68743 13.833Z" fill="#E50914"/>
</svg>
